<svg width="160" height="40" viewBox="0 0 160 40" xmlns="http://www.w3.org/2000/svg" role="img" aria-label="S-planned logo">
  <title>S-planned</title>
  <defs>
    <linearGradient id="tile" x1="2" y1="3" x2="38" y2="37"><stop offset="0" stop-color="#0B1628"/><stop offset="1" stop-color="#142C52"/></linearGradient>
    <linearGradient id="ribbon" x1="11" y1="9" x2="29" y2="31"><stop offset="0" stop-color="#87CEEB"/><stop offset="0.52" stop-color="#4682B4"/><stop offset="1" stop-color="#191970"/></linearGradient>
  </defs>
  <rect x="2" y="2" width="36" height="36" rx="10" fill="url(#tile)"/>
  <path d="M29 11H17C12.8 11 10.2 13.3 10.2 16.5C10.2 19.9 13 21.4 17.4 21.4H22.6C27 21.4 29.8 22.9 29.8 26.3C29.8 29.5 27.2 31.8 23 31.8H11" fill="none" stroke="url(#ribbon)" stroke-width="5.4" stroke-linecap="round" stroke-linejoin="round"/>
  <path d="M29 11H17C12.8 11 10.2 13.3 10.2 16.5C10.2 19.9 13 21.4 17.4 21.4H22.6C27 21.4 29.8 22.9 29.8 26.3C29.8 29.5 27.2 31.8 23 31.8H11" fill="none" stroke="#FFFFFF" stroke-opacity="0.78" stroke-width="1.5" stroke-linecap="round" stroke-linejoin="round"/>
  <text x="48" y="26" font-family="'Nunito','Segoe UI',system-ui,sans-serif" font-size="18" font-weight="800" fill="#0B1020">S-planned</text>
</svg>
