<svg width="180" height="150" viewBox="0 0 180 150" xmlns="http://www.w3.org/2000/svg" role="img" aria-label="S-planned stacked logo">
  <title>S-planned stacked</title>
  <defs>
    <linearGradient id="tile" x1="58" y1="8" x2="122" y2="72"><stop offset="0" stop-color="#0B1628"/><stop offset="1" stop-color="#142C52"/></linearGradient>
    <linearGradient id="ribbon" x1="74" y1="20" x2="108" y2="60"><stop offset="0" stop-color="#87CEEB"/><stop offset="0.52" stop-color="#4682B4"/><stop offset="1" stop-color="#191970"/></linearGradient>
  </defs>
  <rect x="58" y="8" width="64" height="64" rx="18" fill="url(#tile)"/>
  <path d="M106 24H83C75.8 24 71 27.9 71 33.4C71 39.3 75.9 42 83.7 42H96.3C104.1 42 109 44.7 109 50.6C109 56.1 104.2 60 97 60H73" fill="none" stroke="url(#ribbon)" stroke-width="10" stroke-linecap="round" stroke-linejoin="round"/>
  <path d="M106 24H83C75.8 24 71 27.9 71 33.4C71 39.3 75.9 42 83.7 42H96.3C104.1 42 109 44.7 109 50.6C109 56.1 104.2 60 97 60H73" fill="none" stroke="#FFFFFF" stroke-opacity="0.72" stroke-width="3" stroke-linecap="round" stroke-linejoin="round"/>
  <text x="90" y="108" font-family="'Nunito','Segoe UI',system-ui,sans-serif" font-size="26" font-weight="800" fill="#0B1020" text-anchor="middle">S-planned</text>
  <text x="90" y="126" font-family="'Nunito','Segoe UI',system-ui,sans-serif" font-size="9" font-weight="800" fill="#4682B4" letter-spacing="2" text-anchor="middle">PLAN . EXECUTE . PROVE</text>
</svg>
