<svg width="512" height="512" viewBox="0 0 512 512" xmlns="http://www.w3.org/2000/svg" role="img" aria-label="S-planned icon">
  <title>S-planned icon</title>
  <desc>S-planned modern S app icon</desc>
  <defs>
    <linearGradient id="tile" x1="64" y1="48" x2="448" y2="464" gradientUnits="userSpaceOnUse">
      <stop offset="0" stop-color="#0B1628"/>
      <stop offset="1" stop-color="#142C52"/>
    </linearGradient>
    <linearGradient id="ribbon" x1="144" y1="112" x2="384" y2="408" gradientUnits="userSpaceOnUse">
      <stop offset="0" stop-color="#87CEEB"/>
      <stop offset="0.52" stop-color="#4682B4"/>
      <stop offset="1" stop-color="#191970"/>
    </linearGradient>
    <filter id="glow" x="-30%" y="-30%" width="160%" height="160%">
      <feDropShadow dx="0" dy="26" stdDeviation="24" flood-color="#4682B4" flood-opacity="0.34"/>
    </filter>
  </defs>
  <rect width="512" height="512" rx="112" fill="url(#tile)"/>
  <path d="M382 138H227C175 138 141 165 141 205C141 247 176 268 232 268H280C336 268 371 289 371 331C371 371 337 398 285 398H130" fill="none" stroke="url(#ribbon)" stroke-width="72" stroke-linecap="round" stroke-linejoin="round" filter="url(#glow)"/>
  <path d="M382 138H227C175 138 141 165 141 205C141 247 176 268 232 268H280C336 268 371 289 371 331C371 371 337 398 285 398H130" fill="none" stroke="#FFFFFF" stroke-opacity="0.76" stroke-width="22" stroke-linecap="round" stroke-linejoin="round"/>
</svg>
