<svg width="285" height="80" viewBox="0 0 285 80" xmlns="http://www.w3.org/2000/svg" role="img" aria-label="S-planned logo dark">
  <title>S-planned dark</title>
  <defs>
    <linearGradient id="tile" x1="10" y1="10" x2="72" y2="70"><stop offset="0" stop-color="#0B1628"/><stop offset="1" stop-color="#142C52"/></linearGradient>
    <linearGradient id="ribbon" x1="26" y1="20" x2="60" y2="60"><stop offset="0" stop-color="#87CEEB"/><stop offset="0.52" stop-color="#4682B4"/><stop offset="1" stop-color="#191970"/></linearGradient>
  </defs>
  <rect width="285" height="80" rx="16" fill="#07111F"/>
  <rect x="10" y="10" width="62" height="60" rx="17" fill="url(#tile)"/>
  <path d="M57 25H34C26.8 25 22 28.9 22 34.4C22 40.3 26.9 43 34.7 43H47.3C55.1 43 60 45.7 60 51.6C60 57.1 55.2 61 48 61H24" fill="none" stroke="url(#ribbon)" stroke-width="10" stroke-linecap="round" stroke-linejoin="round"/>
  <path d="M57 25H34C26.8 25 22 28.9 22 34.4C22 40.3 26.9 43 34.7 43H47.3C55.1 43 60 45.7 60 51.6C60 57.1 55.2 61 48 61H24" fill="none" stroke="#FFFFFF" stroke-opacity="0.72" stroke-width="3" stroke-linecap="round" stroke-linejoin="round"/>
  <text x="88" y="43" font-family="'Nunito','Segoe UI',system-ui,sans-serif" font-size="30" font-weight="800" fill="#FFFFFF">S-planned</text>
  <text x="90" y="61" font-family="'Nunito','Segoe UI',system-ui,sans-serif" font-size="10" font-weight="800" fill="#4682B4" letter-spacing="3">PLAN . EXECUTE . PROVE</text>
</svg>
