<svg width="512" height="512" viewBox="0 0 512 512" xmlns="http://www.w3.org/2000/svg" role="img" aria-label="S-planned monochrome icon">
  <title>S-planned monochrome icon</title>
  <desc>S-planned single-color S mark</desc>
  <path d="M382 138H227C175 138 141 165 141 205C141 247 176 268 232 268H280C336 268 371 289 371 331C371 371 337 398 285 398H130" fill="none" stroke="#FFFFFF" stroke-width="72" stroke-linecap="round" stroke-linejoin="round"/>
  <path d="M382 138H227C175 138 141 165 141 205C141 247 176 268 232 268H280C336 268 371 289 371 331C371 371 337 398 285 398H130" fill="none" stroke="#FFFFFF" stroke-opacity="0.5" stroke-width="22" stroke-linecap="round" stroke-linejoin="round"/>
</svg>
