<svg width="285" height="72" viewBox="0 0 285 72" xmlns="http://www.w3.org/2000/svg" role="img" aria-label="S-planned logo">
  <title>S-planned</title>
  <defs>
    <linearGradient id="tile" x1="10" y1="8" x2="70" y2="64"><stop offset="0" stop-color="#0B1628"/><stop offset="1" stop-color="#142C52"/></linearGradient>
    <linearGradient id="ribbon" x1="25" y1="18" x2="58" y2="55"><stop offset="0" stop-color="#87CEEB"/><stop offset="0.52" stop-color="#4682B4"/><stop offset="1" stop-color="#191970"/></linearGradient>
  </defs>
  <rect x="8" y="8" width="60" height="56" rx="16" fill="url(#tile)"/>
  <path d="M54 22H31C23.8 22 19 25.9 19 31.4C19 37.3 23.9 40 31.7 40H44.3C52.1 40 57 42.7 57 48.6C57 54.1 52.2 58 45 58H21" fill="none" stroke="url(#ribbon)" stroke-width="10" stroke-linecap="round" stroke-linejoin="round"/>
  <path d="M54 22H31C23.8 22 19 25.9 19 31.4C19 37.3 23.9 40 31.7 40H44.3C52.1 40 57 42.7 57 48.6C57 54.1 52.2 58 45 58H21" fill="none" stroke="#FFFFFF" stroke-opacity="0.72" stroke-width="3" stroke-linecap="round" stroke-linejoin="round"/>
  <text x="84" y="39" font-family="'Nunito','Segoe UI',system-ui,sans-serif" font-size="30" font-weight="800" fill="#0B1020">S-planned</text>
  <text x="86" y="57" font-family="'Nunito','Segoe UI',system-ui,sans-serif" font-size="10" font-weight="800" fill="#4682B4" letter-spacing="3">PLAN . EXECUTE . PROVE</text>
</svg>
