<svg width="64" height="64" viewBox="0 0 64 64" xmlns="http://www.w3.org/2000/svg" role="img" aria-label="S-planned favicon 64px">
  <title>S-planned favicon 64px</title>
  <defs>
    <linearGradient id="g64" x1="0%" y1="0%" x2="100%" y2="100%">
      <stop offset="0%" stop-color="#3B82F6"/>
      <stop offset="100%" stop-color="#1757C2"/>
    </linearGradient>
  </defs>
  <rect width="64" height="64" rx="14" fill="url(#g64)"/>
  <!-- Back document layer -->
  <rect x="18" y="10" width="30" height="38" rx="4" fill="#3B82F6" opacity="0.45"/>
  <!-- Front document -->
  <rect x="14" y="14" width="30" height="36" rx="4" fill="white"/>
  <!-- Row 1 — checked -->
  <rect x="18" y="22" width="8" height="8" rx="2" fill="#1757C2"/>
  <path d="M19.5 26L21.2 27.7L24.5 24" fill="none" stroke="white" stroke-width="1.4" stroke-linecap="round" stroke-linejoin="round"/>
  <rect x="28" y="24" width="11" height="2.5" rx="1.25" fill="#C7D8F5"/>
  <!-- Row 2 — checked -->
  <rect x="18" y="33" width="8" height="8" rx="2" fill="#1757C2"/>
  <path d="M19.5 37L21.2 38.7L24.5 35" fill="none" stroke="white" stroke-width="1.4" stroke-linecap="round" stroke-linejoin="round"/>
  <rect x="28" y="35" width="9" height="2.5" rx="1.25" fill="#C7D8F5"/>
  <!-- Row 3 — unchecked -->
  <rect x="18" y="44" width="8" height="4.5" rx="2" fill="none" stroke="#C7D8F5" stroke-width="1.1"/>
  <rect x="28" y="45" width="11" height="2.5" rx="1.25" fill="#EEF1F8"/>
</svg>
